<?xml version="1.0" encoding="UTF-8"?>
<svg id="Layer_1" xmlns="http://www.w3.org/2000/svg" version="1.1" viewBox="0 0 39.4 16.6">
  <!-- Generator: Adobe Illustrator 29.0.1, SVG Export Plug-In . SVG Version: 2.1.0 Build 192)  -->
  <defs>
    <style>
      .st0 {
        fill: #231f20;
      }
    </style>
  </defs>
  <g>
    <path class="st0" d="M5.2,6.7h4.4v-2.7c0-.5,0-.8,0-1,0-.1-.1-.2-.3-.3-.2-.1-.4-.2-.6-.2h-.3v-.3h4v.3h-.3c-.2,0-.4,0-.6.2-.2,0-.2.2-.3.3s0,.5,0,.9v6.1c0,.5,0,.8,0,1,0,.1.1.2.3.3.2.1.4.2.6.2h.3v.3h-4v-.3h.3c.4,0,.7-.1.8-.3.1-.2.2-.5.2-1.1v-2.9h-4.4v2.9c0,.5,0,.8,0,1,0,.1.1.2.3.3.2.1.4.2.6.2h.3v.3H2.5v-.3h.3c.4,0,.7-.1.8-.3.1-.2.2-.5.2-1.1v-6.1c0-.5,0-.8,0-1,0-.1-.1-.2-.3-.3-.2-.1-.4-.2-.6-.2h-.3v-.3h4v.3h-.3c-.2,0-.4,0-.6.2-.1,0-.2.2-.3.3,0,.2,0,.5,0,.9v2.7h0Z"/>
    <path class="st0" d="M21.1,2.1l.2,3.2h-.2c-.3-1-.7-1.7-1.2-2.1s-1.2-.6-1.9-.6-1.2.2-1.7.5c-.5.3-.9.8-1.2,1.5-.3.7-.4,1.6-.4,2.6s.1,1.6.4,2.2.7,1.1,1.2,1.4,1.2.5,1.9.5,1.2-.1,1.6-.4c.5-.3,1-.8,1.5-1.6h.2c-.5,1-1,1.6-1.7,2s-1.4.6-2.2.6c-1.6,0-2.8-.6-3.6-1.7-.6-.9-1-1.9-1-3s.2-1.8.6-2.6c.4-.8,1-1.4,1.7-1.8s1.5-.7,2.4-.7,1.3.2,2,.5c.2,0,.3.2.4.2.1,0,.2,0,.3-.1.1-.1.2-.3.3-.5h.2,0Z"/>
    <path class="st0" d="M27.3,2.1c1.2,0,2.3.5,3.2,1.4.9.9,1.4,2.1,1.4,3.5s-.4,2.6-1.4,3.6c-.9,1-2,1.4-3.3,1.4s-2.4-.5-3.3-1.4-1.3-2.1-1.3-3.6.5-2.7,1.5-3.7c.9-.8,2-1.2,3.2-1.2h0ZM27.1,2.6c-.8,0-1.5.3-2,.9-.6.8-1,1.9-1,3.4s.3,2.7,1,3.6c.5.6,1.2,1,2,1s1.6-.3,2.2-1c.6-.7.9-1.8.9-3.3s-.3-2.8-1-3.6c-.5-.6-1.2-1-2.1-1h0Z"/>
  </g>
  <path class="st0" d="M32.3,10c.2-.5.4-.8.8-1.1s.7-.4,1.1-.4,1,.2,1.3.5c.2.3.3.6.3.9,0,.5-.3,1-.9,1.6.4.2.8.4,1,.7.2.3.3.7.3,1.1,0,.6-.2,1.1-.6,1.6-.5.6-1.2.9-2.2.9s-.8,0-.9-.2c-.2-.1-.2-.2-.2-.4s0-.2.1-.3c0,0,.2-.1.3-.1s.2,0,.3,0c0,0,.2,0,.4.2.2.1.3.2.4.2.1,0,.3,0,.4,0,.3,0,.7-.1.9-.4s.4-.6.4-1,0-.5-.2-.8c0-.2-.2-.3-.3-.4-.2-.1-.3-.3-.6-.4s-.5-.2-.8-.2h-.2v-.2c.3,0,.5-.1.8-.3s.5-.3.6-.6c.1-.2.2-.5.2-.7s-.1-.6-.3-.8c-.2-.2-.5-.3-.8-.3-.5,0-1,.3-1.3.8h-.2c0,0,0-.1,0-.1Z"/>
  <path class="st0" d="M38.3,3.2h-5.4v-.6h5.4v.6Z"/>
</svg>